# xmcd
#
# Track frame offsets: 
#        150
#        17488
#        51645
#        70339
#        90539
#        104664
#        118597
#        131547
#        146758
#        168184
#
# Disc length: 2487 seconds
#
# Revision: 17
# Processed by: cddbd v1.5.2PL0 Copyright (c) Steve Scherf et al.
# Submitted via: ExactAudioCopyFreeDBPlugin 1.0
#
DISCID=8d09b50a
DTITLE=Leonard Cohen - Old Ideas
DYEAR=2012
DGENRE=Folk
TTITLE0=Leonard Cohen - Going Home
TTITLE1=Leonard Cohen - Amen
TTITLE2=Leonard Cohen - Show Me The Place
TTITLE3=Leonard Cohen - Darkness
TTITLE4=Leonard Cohen - Anyhow
TTITLE5=Leonard Cohen - Crazy To Love You
TTITLE6=Leonard Cohen - Come Healing
TTITLE7=Leonard Cohen - Banjo
TTITLE8=Leonard Cohen - Lullaby
TTITLE9=Leonard Cohen - Different Sides
EXTD=YEAR: 2012
EXTT0=
EXTT1=
EXTT2=
EXTT3=
EXTT4=
EXTT5=
EXTT6=
EXTT7=
EXTT8=
EXTT9=
PLAYORDER=
